<svg width="20" height="20" viewBox="0 0 20 20" fill="none" xmlns="http://www.w3.org/2000/svg">
<path fill-rule="evenodd" clip-rule="evenodd" d="M14.6469 3.42789C14.027 3.42789 13.5242 3.93199 13.5242 4.55321C13.5242 5.17519 14.027 5.6792 14.6469 5.6792C15.2671 5.6792 15.7695 5.17519 15.7695 4.55321C15.7695 3.93199 15.2671 3.42789 14.6469 3.42789ZM13.3997 19.2H5.75273C2.58049 19.2 0 16.6126 0 13.4327V5.76723C0 2.58683 2.58049 0 5.75273 0H13.3997C16.5718 0 19.153 2.58683 19.153 5.76723V13.4327C19.153 16.6126 16.5718 19.2 13.3997 19.2ZM9.65525 12.6285C7.98897 12.6285 6.63354 11.2698 6.63354 9.60005C6.63354 7.92964 7.98897 6.57095 9.65525 6.57095C11.321 6.57095 12.6764 7.92964 12.6764 9.60005C12.6764 11.2698 11.321 12.6285 9.65525 12.6285ZM9.65525 4.87135C7.05412 4.87135 4.93807 6.99258 4.93807 9.60005C4.93807 12.2068 7.05412 14.3281 9.65525 14.3281C12.2557 14.3281 14.3718 12.2068 14.3718 9.60005C14.3718 6.99258 12.2557 4.87135 9.65525 4.87135Z" fill="#868E90"/>
</svg>
