<svg width="24" height="20" viewBox="0 0 24 20" fill="none" xmlns="http://www.w3.org/2000/svg">
<path d="M23.5674 2.70168C22.8273 3.03701 22.0078 3.23986 21.2084 3.37387C21.5877 3.31051 22.1451 2.62354 22.3681 2.34552C22.709 1.92235 22.9922 1.43937 23.1512 0.917902C23.1718 0.877198 23.1871 0.826223 23.1463 0.795215C23.0947 0.775151 23.0622 0.785519 23.0216 0.805487C22.1293 1.28357 21.2063 1.63042 20.2241 1.87627C20.1427 1.89624 20.0824 1.87627 20.0309 1.82472C19.9496 1.73285 19.873 1.64616 19.7866 1.57502C19.3738 1.22386 18.9309 0.948239 18.4318 0.744719C17.7762 0.477839 17.0599 0.364367 16.3534 0.409967C15.6664 0.455087 14.9918 0.648143 14.3824 0.966671C13.7715 1.28587 13.2262 1.73025 12.7914 2.26584C12.3426 2.82043 12.0116 3.47429 11.8418 4.16837C11.6784 4.83797 11.6921 5.49998 11.792 6.17669C11.8071 6.2891 11.7967 6.30418 11.6953 6.2891C7.85394 5.71704 4.66972 4.34309 2.08444 1.39713C1.97212 1.26897 1.91135 1.26897 1.81909 1.40673C0.687732 3.10267 1.23685 5.8261 2.64988 7.16501C2.83871 7.34405 3.03196 7.52203 3.24085 7.68475C3.16434 7.7004 2.2244 7.59902 1.38604 7.16501C1.27372 7.09378 1.21727 7.13496 1.20748 7.26206C1.1972 7.44542 1.21304 7.61429 1.23791 7.81291C1.45496 9.53141 2.64556 11.1209 4.27564 11.7417C4.46937 11.823 4.68325 11.8941 4.89167 11.93C4.52044 12.0113 4.13778 12.0695 3.07256 11.9857C2.94028 11.9609 2.88978 12.027 2.94028 12.1545C3.74063 14.3355 5.46786 14.985 6.76213 15.3547C6.93513 15.385 7.10821 15.385 7.28245 15.4257C7.2716 15.4415 7.26124 15.4415 7.25154 15.4566C6.82223 16.1106 5.33432 16.5972 4.6414 16.8393C3.3814 17.28 2.00898 17.478 0.677364 17.3467C0.464052 17.3153 0.419604 17.3179 0.3621 17.3467C0.303444 17.3832 0.354517 17.434 0.422773 17.4894C0.693109 17.668 0.968244 17.8258 1.24885 17.9788C2.09423 18.4272 2.97599 18.7842 3.89797 19.0387C8.66025 20.3536 14.0238 19.3872 17.5993 15.8349C20.407 13.0452 21.3913 9.19771 21.3913 5.3459C21.3913 5.19509 21.5693 5.11205 21.6752 5.03227C22.4056 4.48373 22.9949 3.82661 23.5398 3.09346C23.6617 2.92843 23.6634 2.78193 23.6634 2.72165C23.6634 2.71137 23.6634 2.70168 23.6634 2.70168C23.6634 2.63966 23.6617 2.65877 23.5674 2.70168Z" fill="#868E90"/>
</svg>
